<svg width="18" height="16" viewBox="0 0 18 16" fill="none" xmlns="http://www.w3.org/2000/svg">
<g clip-path="url(#clip0_142_12964)">
<path d="M17.7346 3.64583C18.0176 4.04167 18.0813 4.48958 17.9256 4.98958L15.007 14.4271C14.8725 14.8715 14.6019 15.2448 14.1951 15.5469C13.7882 15.849 13.3549 16 12.8949 16H3.09896C2.55414 16 2.02879 15.8142 1.52289 15.4427C1.017 15.0712 0.664993 14.6146 0.46688 14.0729C0.297069 13.6076 0.289993 13.1667 0.445654 12.75C0.445654 12.7222 0.456267 12.6285 0.477493 12.4688C0.49872 12.309 0.512871 12.1806 0.519946 12.0833C0.527022 12.0278 0.516408 11.9531 0.488107 11.8594C0.459805 11.7656 0.449192 11.6979 0.456267 11.6562C0.470418 11.5799 0.49872 11.5069 0.541173 11.4375C0.583625 11.3681 0.641998 11.2865 0.716291 11.1927C0.790583 11.099 0.848956 11.0174 0.891409 10.9479C1.05414 10.684 1.21334 10.3663 1.369 9.99479C1.52466 9.62326 1.6308 9.30556 1.6874 9.04167C1.70863 8.97222 1.71039 8.86806 1.69271 8.72917C1.67502 8.59028 1.67325 8.49306 1.6874 8.4375C1.70863 8.36111 1.76877 8.26389 1.86782 8.14583C1.96688 8.02778 2.02702 7.94792 2.04825 7.90625C2.19683 7.65625 2.34542 7.33681 2.494 6.94792C2.64259 6.55903 2.73103 6.24653 2.75933 6.01042C2.76641 5.94792 2.75756 5.83681 2.7328 5.67708C2.70804 5.51736 2.7098 5.42014 2.73811 5.38542C2.76641 5.29514 2.84424 5.18924 2.9716 5.06771C3.09896 4.94618 3.17679 4.86806 3.20509 4.83333C3.33952 4.65278 3.48988 4.35938 3.65615 3.95312C3.82242 3.54688 3.91971 3.21181 3.94801 2.94792C3.95509 2.89236 3.94447 2.80382 3.91617 2.68229C3.88787 2.56076 3.8808 2.46875 3.89495 2.40625C3.9091 2.35069 3.94094 2.28819 3.99046 2.21875C4.03999 2.14931 4.10367 2.06944 4.1815 1.97917C4.25933 1.88889 4.31947 1.81597 4.36193 1.76042C4.41853 1.67708 4.4769 1.57118 4.53705 1.44271C4.59719 1.31424 4.65025 1.19271 4.69624 1.07812C4.74223 0.963542 4.79884 0.838542 4.86605 0.703125C4.93327 0.567708 5.00226 0.456597 5.07301 0.369792C5.14377 0.282986 5.23752 0.201389 5.35426 0.125C5.47101 0.0486111 5.59837 0.00868056 5.73634 0.00520833C5.87431 0.00173611 6.04235 0.0208333 6.24047 0.0625L6.22985 0.09375C6.49872 0.03125 6.67914 0 6.77113 0H14.8478C15.3714 0 15.7747 0.194444 16.0577 0.583333C16.3407 0.972222 16.4044 1.42361 16.2487 1.9375L13.3407 11.375C13.086 12.2014 12.833 12.7344 12.5819 12.974C12.3307 13.2135 11.8761 13.3333 11.2181 13.3333H1.99518C1.80414 13.3333 1.66971 13.3854 1.59188 13.4896C1.51405 13.6007 1.51051 13.75 1.58127 13.9375C1.75108 14.4236 2.26051 14.6667 3.10957 14.6667H12.9056C13.1107 14.6667 13.3089 14.6128 13.4999 14.5052C13.6909 14.3976 13.8148 14.2535 13.8714 14.0729L17.0553 3.79167C17.1049 3.63889 17.1225 3.44097 17.1084 3.19792C17.3773 3.30208 17.586 3.45139 17.7346 3.64583ZM6.44212 3.66667C6.41381 3.75694 6.42089 3.83507 6.46334 3.90104C6.5058 3.96701 6.57655 4 6.67561 4H13.1284C13.2204 4 13.3106 3.96701 13.3991 3.90104C13.4875 3.83507 13.5459 3.75694 13.5742 3.66667L13.7971 3C13.8254 2.90972 13.8183 2.8316 13.7758 2.76562C13.7334 2.69965 13.6626 2.66667 13.5636 2.66667H7.11075C7.01877 2.66667 6.92855 2.69965 6.84011 2.76562C6.75167 2.8316 6.6933 2.90972 6.66499 3L6.44212 3.66667ZM5.56122 6.33333C5.53292 6.42361 5.53999 6.50174 5.58245 6.56771C5.6249 6.63368 5.69565 6.66667 5.79471 6.66667H12.2475C12.3395 6.66667 12.4297 6.63368 12.5182 6.56771C12.6066 6.50174 12.665 6.42361 12.6933 6.33333L12.9162 5.66667C12.9445 5.57639 12.9374 5.49826 12.8949 5.43229C12.8525 5.36632 12.7817 5.33333 12.6827 5.33333H6.22985C6.13787 5.33333 6.04766 5.36632 5.95922 5.43229C5.87077 5.49826 5.8124 5.57639 5.7841 5.66667L5.56122 6.33333Z" fill="#555555"/>
</g>
<defs>
<clipPath id="clip0_142_12964">
<rect width="18" height="16" fill="white"/>
</clipPath>
</defs>
</svg>
