<svg width="24" height="22" viewBox="0 0 24 22" fill="none" xmlns="http://www.w3.org/2000/svg">
<path fill-rule="evenodd" clip-rule="evenodd" d="M23.2209 11.2328C23.2209 5.28435 18.0716 0.461182 11.7209 0.461182C5.37028 0.461182 0.220947 5.28435 0.220947 11.2328C0.220947 16.6089 4.42563 21.0652 9.92407 21.874L9.92407 14.3474L7.00338 14.3474L7.00338 11.2328L9.92407 11.2328L9.92407 8.85964C9.92407 6.1605 11.6414 4.66835 14.2679 4.66835C15.5262 4.66835 16.8426 4.87897 16.8426 4.87897L16.8426 7.53003L15.3917 7.53003C13.964 7.53003 13.5173 8.36001 13.5173 9.21308L13.5173 11.2328L16.7065 11.2328L16.1972 14.3474L13.5178 14.3474L13.5178 21.875C19.0163 21.0666 23.2209 16.6104 23.2209 11.2328Z" fill="white"/>
</svg>
