<svg width="20" height="18" viewBox="0 0 20 18" fill="none" xmlns="http://www.w3.org/2000/svg">
<path d="M1 0H19C19.2652 0 19.5196 0.102914 19.7071 0.286102C19.8946 0.46929 20 0.717746 20 0.976813V16.6058C20 16.8649 19.8946 17.1133 19.7071 17.2965C19.5196 17.4797 19.2652 17.5826 19 17.5826H1C0.734784 17.5826 0.48043 17.4797 0.292893 17.2965C0.105357 17.1133 0 16.8649 0 16.6058V0.976813C0 0.717746 0.105357 0.46929 0.292893 0.286102C0.48043 0.102914 0.734784 0 1 0ZM18 4.13973L10.072 11.0751L2 4.11824V15.629H18V4.13973ZM2.511 1.95363L10.061 8.46115L17.502 1.95363H2.511Z" fill="#045097"/>
</svg>
