<svg width="18" height="18" viewBox="0 0 18 18" fill="none" xmlns="http://www.w3.org/2000/svg">
<path d="M18 13.1088V16.5628C18.0001 16.8101 17.9042 17.0483 17.7316 17.2292C17.559 17.4101 17.3226 17.5204 17.07 17.5377C16.633 17.567 16.276 17.5826 16 17.5826C7.163 17.5826 0 10.5857 0 1.95363C0 1.68403 0.015 1.3353 0.046 0.908436C0.0637224 0.661736 0.176581 0.430785 0.361804 0.262185C0.547026 0.0935853 0.790823 -0.00011178 1.044 2.5063e-07H4.58C4.70404 -0.000122428 4.8237 0.0447957 4.91573 0.126029C5.00776 0.207262 5.0656 0.31901 5.078 0.439566C5.101 0.664233 5.122 0.842989 5.142 0.978766C5.34073 2.33353 5.748 3.65116 6.35 4.88699C6.445 5.08236 6.383 5.31581 6.203 5.44085L4.045 6.94709C5.36445 9.95026 7.81455 12.3435 10.889 13.6324L12.429 11.5283C12.4919 11.4424 12.5838 11.3807 12.6885 11.3541C12.7932 11.3275 12.9042 11.3377 13.002 11.3828C14.267 11.9697 15.6156 12.3666 17.002 12.5599C17.141 12.5794 17.324 12.6009 17.552 12.6224C17.6752 12.6347 17.7894 12.6913 17.8724 12.7812C17.9553 12.8711 18.0002 12.9878 18 13.1088Z" fill="#045097"/>
</svg>
